
<svg enable-background="new 0 0 497 497" height="512" viewBox="0 0 497 497" width="512" xmlns="http://www.w3.org/2000/svg"><g><path d="m489.391 77.051c-7.638.103-15.097.36-22.391.754l-30 269.195 60-90v-172.444c0-4.182-3.427-7.561-7.609-7.505z" fill="#5b9b40"/><path d="m193.33 185.87c-1.623 1.175-3.231 2.34-4.829 3.496v157.634h278.499v-269.194c-134.489 7.269-211.208 62.822-273.67 108.064z" fill="#70ae3e"/><path d="m497 257c-10.65 0-20.618-.376-30.013-1.098l-30.002 91.098 60.015-60z" fill="#37774b"/><path d="m303.671 185.87c-65.852-47.697-147.539-106.864-296.073-108.82-4.178-.055-7.598 3.325-7.598 7.504v202.446l30 60h436.985l.002-91.099c-74.548-5.726-112.683-33.358-163.316-70.031z" fill="#468943"/><path d="m248.5 0v90c24.853 0 45-20.147 45-45s-20.147-45-45-45z" fill="#ffa630"/><path d="m263.5 45c0-24.853-6.716-45-15-45-24.853 0-45 20.147-45 45s20.147 45 45 45c8.284 0 15-20.147 15-45z" fill="#ffc938"/><path d="m467 287-30 75 60-30v-45z" fill="#5b9b40"/><path d="m0 287v105l30 30h437v-135z" fill="#70ae3e"/><path d="m437 414.5 30 82.5h22.5c4.142 0 7.5-3.358 7.5-7.5v-157.5h-30z" fill="#70ae3e"/><path d="m102.174 332c-8.077 0-15.027 6.207-15.406 14.275-.406 8.614 6.457 15.725 14.982 15.725s15.388 7.111 14.983 15.725c-.38 8.068-7.33 14.275-15.406 14.275h-101.327v97.5c0 4.142 3.358 7.5 7.5 7.5h459.5v-165z" fill="#9dcb3b"/><path d="m90 249.5c-4.143 0-7.5-3.357-7.5-7.5v-15c0-4.143 3.357-7.5 7.5-7.5s7.5 3.357 7.5 7.5v15c0 4.143-3.357 7.5-7.5 7.5z" fill="#37774b"/><path d="m248.5 264.5c-4.143 0-7.5-3.357-7.5-7.5v-15c0-4.143 3.357-7.5 7.5-7.5s7.5 3.357 7.5 7.5v15c0 4.143-3.357 7.5-7.5 7.5z" fill="#37774b"/><path d="m467 234.5c-4.143 0-7.5-3.357-7.5-7.5v-15c0-4.143 3.357-7.5 7.5-7.5s7.5 3.357 7.5 7.5v15c0 4.143-3.357 7.5-7.5 7.5z" fill="#468943"/><path d="m437 219.5c-4.143 0-7.5-3.357-7.5-7.5v-15c0-4.143 3.357-7.5 7.5-7.5s7.5 3.357 7.5 7.5v15c0 4.143-3.357 7.5-7.5 7.5z" fill="#5b9b40"/><path d="m60 264.5c-4.143 0-7.5-3.357-7.5-7.5v-15c0-4.143 3.357-7.5 7.5-7.5s7.5 3.357 7.5 7.5v15c0 4.143-3.357 7.5-7.5 7.5z" fill="#37774b"/><path d="m30 249.5c-4.143 0-7.5-3.357-7.5-7.5v-15c0-4.143 3.357-7.5 7.5-7.5s7.5 3.357 7.5 7.5v15c0 4.143-3.357 7.5-7.5 7.5z" fill="#37774b"/><path d="m30 399.5c-4.143 0-7.5-3.357-7.5-7.5v-15c0-4.143 3.357-7.5 7.5-7.5s7.5 3.357 7.5 7.5v15c0 4.143-3.357 7.5-7.5 7.5z" fill="#9dcb3b"/><path d="m60 399.5c-4.143 0-7.5-3.357-7.5-7.5v-15c0-4.143 3.357-7.5 7.5-7.5s7.5 3.357 7.5 7.5v15c0 4.143-3.357 7.5-7.5 7.5z" fill="#9dcb3b"/><path d="m158.5 414.5c-4.143 0-7.5-3.357-7.5-7.5v-15c0-4.143 3.357-7.5 7.5-7.5s7.5 3.357 7.5 7.5v15c0 4.143-3.357 7.5-7.5 7.5z" fill="#70ae3e"/><path d="m188.5 399.5c-4.143 0-7.5-3.357-7.5-7.5v-15c0-4.143 3.357-7.5 7.5-7.5s7.5 3.357 7.5 7.5v15c0 4.143-3.357 7.5-7.5 7.5z" fill="#70ae3e"/><path d="m467 459.5c-4.143 0-7.5-3.357-7.5-7.5v-15c0-4.143 3.357-7.5 7.5-7.5s7.5 3.357 7.5 7.5v15c0 4.143-3.357 7.5-7.5 7.5z" fill="#5b9b40"/><path d="m437 474.5c-4.143 0-7.5-3.357-7.5-7.5v-15c0-4.143 3.357-7.5 7.5-7.5s7.5 3.357 7.5 7.5v15c0 4.143-3.357 7.5-7.5 7.5z" fill="#70ae3e"/><path d="m467 384.5c-4.143 0-7.5-3.357-7.5-7.5v-15c0-4.143 3.357-7.5 7.5-7.5s7.5 3.357 7.5 7.5v15c0 4.143-3.357 7.5-7.5 7.5z" fill="#5b9b40"/><path d="m407 459.5c-4.143 0-7.5-3.357-7.5-7.5v-15c0-4.143 3.357-7.5 7.5-7.5s7.5 3.357 7.5 7.5v15c0 4.143-3.357 7.5-7.5 7.5z" fill="#70ae3e"/><g fill="#9dcb3b"><path d="m365.25 339.5c-4.143 0-7.5-3.357-7.5-7.5v-15c0-4.143 3.357-7.5 7.5-7.5s7.5 3.357 7.5 7.5v15c0 4.143-3.357 7.5-7.5 7.5z"/><path d="m218.5 339.5c-4.143 0-7.5-3.357-7.5-7.5v-15c0-4.143 3.357-7.5 7.5-7.5s7.5 3.357 7.5 7.5v15c0 4.143-3.357 7.5-7.5 7.5z"/><path d="m248.5 339.5c-4.143 0-7.5-3.357-7.5-7.5v-15c0-4.143 3.357-7.5 7.5-7.5s7.5 3.357 7.5 7.5v15c0 4.143-3.357 7.5-7.5 7.5z"/><path d="m188.5 339.5c-4.143 0-7.5-3.357-7.5-7.5v-15c0-4.143 3.357-7.5 7.5-7.5s7.5 3.357 7.5 7.5v15c0 4.143-3.357 7.5-7.5 7.5z"/></g><path d="m30 459.5c-4.143 0-7.5-3.357-7.5-7.5v-15c0-4.143 3.357-7.5 7.5-7.5s7.5 3.357 7.5 7.5v15c0 4.143-3.357 7.5-7.5 7.5z" fill="#70ae3e"/><path d="m60 474.5c-4.143 0-7.5-3.357-7.5-7.5v-15c0-4.143 3.357-7.5 7.5-7.5s7.5 3.357 7.5 7.5v15c0 4.143-3.357 7.5-7.5 7.5z" fill="#70ae3e"/></g></svg>